HIERARCHY
ROOT Hips
{
	OFFSET 0.000000 0.000000 0.000000 
	CHANNELS 6 Xposition Yposition Zposition Yrotation Xrotation Zrotation
	JOINT Spine
	{
		OFFSET 0.000000 0.072080 0.012321 
		CHANNELS 3 Xrotation Yrotation Zrotation
		JOINT Spine1
		{
			OFFSET 0.000000 0.126984 -0.001294 
			CHANNELS 3 Xrotation Yrotation Zrotation
			JOINT Spine2
			{
				OFFSET 0.000000 0.106559 -0.010096 
				CHANNELS 3 Xrotation Yrotation Zrotation
				JOINT Neck
				{
					OFFSET 0.000000 0.108417 -0.034017 
					CHANNELS 3 Xrotation Yrotation Zrotation
					JOINT Neck1
					{
						OFFSET 0.000000 0.033906 0.007241 
						CHANNELS 3 Xrotation Yrotation Zrotation
						JOINT Head
						{
							OFFSET 0.000000 0.031458 0.006707 
							CHANNELS 3 Xrotation Yrotation Zrotation
							End Site
							{
								OFFSET 0.000000 0.179920 0.000962 
							}
						}
					}
				}
				JOINT LeftShoulder
				{
					OFFSET 0.048002 0.079586 -0.029634 
					CHANNELS 3 Zrotation Xrotation Yrotation
					JOINT LeftArm
					{
						OFFSET 0.096243 -0.008695 -0.014012 
						CHANNELS 3 Zrotation Xrotation Yrotation
						JOINT LeftForeArm
						{
							OFFSET 0.216305 0.000000 0.000000 
							CHANNELS 3 Xrotation Zrotation Yrotation
							JOINT LeftHand
							{
								OFFSET 0.217764 0.000000 0.000000 
								CHANNELS 3 Zrotation Yrotation Xrotation
								JOINT LeftHandThumb1
								{
									OFFSET 0.018582 -0.007835 0.020476 
									CHANNELS 3 Zrotation Xrotation Yrotation
									JOINT LeftHandThumb2
									{
										OFFSET 0.026269 -0.007835 0.022186 
										CHANNELS 3 Zrotation Xrotation Yrotation
										JOINT LeftHandThumb3
										{
											OFFSET 0.035170 -0.010504 0.017018 
											CHANNELS 3 Zrotation Xrotation Yrotation
											End Site
											{
												OFFSET 0.020312 -0.007813 0.007813 
											}
										}
									}
								}
								JOINT LeftHandMiddle1
								{
									OFFSET 0.081749 0.004803 0.003358 
									CHANNELS 3 Zrotation Xrotation Yrotation
									JOINT LeftHandMiddle2
									{
										OFFSET 0.045251 0.000000 0.000000 
										CHANNELS 3 Zrotation Xrotation Yrotation
										JOINT LeftHandMiddle3
										{
											OFFSET 0.029009 0.000000 0.000000 
											CHANNELS 3 Zrotation Xrotation Yrotation
											End Site
											{
												OFFSET 0.017969 0.000000 0.000000 
											}
										}
									}
								}
								JOINT LeftHandIndex1
								{
									OFFSET 0.081207 0.004803 0.021137 
									CHANNELS 3 Zrotation Xrotation Yrotation
									JOINT LeftHandIndex2
									{
										OFFSET 0.043354 0.000000 0.000000 
										CHANNELS 3 Zrotation Xrotation Yrotation
										JOINT LeftHandIndex3
										{
											OFFSET 0.026493 0.000000 0.000000 
											CHANNELS 3 Zrotation Xrotation Yrotation
											End Site
											{
												OFFSET 0.019531 0.000000 0.000000 
											}
										}
									}
								}
								JOINT LeftHandRing1
								{
									OFFSET 0.080666 0.002509 -0.014652 
									CHANNELS 3 Zrotation Xrotation Yrotation
									JOINT LeftHandRing2
									{
										OFFSET 0.042541 0.000000 0.000000 
										CHANNELS 3 Zrotation Xrotation Yrotation
										JOINT LeftHandRing3
										{
											OFFSET 0.029009 0.000000 0.000000 
											CHANNELS 3 Zrotation Xrotation Yrotation
											End Site
											{
												OFFSET 0.015625 0.000000 0.000000 
											}
										}
									}
								}
								JOINT LeftHandPinky1
								{
									OFFSET 0.078227 -0.000612 -0.030993 
									CHANNELS 3 Zrotation Xrotation Yrotation
									JOINT LeftHandPinky2
									{
										OFFSET 0.028721 0.000000 0.000000 
										CHANNELS 3 Zrotation Xrotation Yrotation
										JOINT LeftHandPinky3
										{
											OFFSET 0.021963 0.000000 0.000000 
											CHANNELS 3 Zrotation Xrotation Yrotation
											End Site
											{
												OFFSET 0.022656 0.000000 0.000000 
											}
										}
									}
								}
							}
						}
					}
				}
				JOINT RightShoulder
				{
					OFFSET -0.047970 0.079586 -0.029634 
					CHANNELS 3 Zrotation Xrotation Yrotation
					JOINT RightArm
					{
						OFFSET -0.096274 -0.008695 -0.014012 
						CHANNELS 3 Zrotation Xrotation Yrotation
						JOINT RightForeArm
						{
							OFFSET -0.216305 0.000000 0.000000 
							CHANNELS 3 Xrotation Zrotation Yrotation
							JOINT RightHand
							{
								OFFSET -0.217764 0.000000 0.000000 
								CHANNELS 3 Zrotation Yrotation Xrotation
								JOINT RightHandThumb1
								{
									OFFSET -0.019670 -0.007318 0.019638 
									CHANNELS 3 Zrotation Xrotation Yrotation
									JOINT RightHandThumb2
									{
										OFFSET -0.025498 -0.008492 0.023179 
										CHANNELS 3 Zrotation Xrotation Yrotation
										JOINT RightHandThumb3
										{
											OFFSET -0.034504 -0.010705 0.016680 
											CHANNELS 3 Zrotation Xrotation Yrotation
											End Site
											{
												OFFSET -0.020312 -0.007813 0.007813 
											}
										}
									}
								}
								JOINT RightHandIndex1
								{
									OFFSET -0.081770 0.003825 0.021187 
									CHANNELS 3 Zrotation Xrotation Yrotation
									JOINT RightHandIndex2
									{
										OFFSET -0.042006 0.000000 0.000000 
										CHANNELS 3 Zrotation Xrotation Yrotation
										JOINT RightHandIndex3
										{
											OFFSET -0.026449 0.000000 0.000000 
											CHANNELS 3 Zrotation Xrotation Yrotation
											End Site
											{
												OFFSET -0.020312 0.000000 0.000000 
											}
										}
									}
								}
								JOINT RightHandMiddle1
								{
									OFFSET -0.084059 0.003825 0.003342 
									CHANNELS 3 Zrotation Xrotation Yrotation
									JOINT RightHandMiddle2
									{
										OFFSET -0.043881 0.000000 0.000000 
										CHANNELS 3 Zrotation Xrotation Yrotation
										JOINT RightHandMiddle3
										{
											OFFSET -0.029191 0.000000 0.000000 
											CHANNELS 3 Zrotation Xrotation Yrotation
											End Site
											{
												OFFSET -0.017969 0.000000 0.000000 
											}
										}
									}
								}
								JOINT RightHandRing1
								{
									OFFSET -0.081798 0.003030 -0.015127 
									CHANNELS 3 Zrotation Xrotation Yrotation
									JOINT RightHandRing2
									{
										OFFSET -0.042198 0.000000 0.000000 
										CHANNELS 3 Zrotation Xrotation Yrotation
										JOINT RightHandRing3
										{
											OFFSET -0.026497 0.000000 0.000000 
											CHANNELS 3 Zrotation Xrotation Yrotation
											End Site
											{
												OFFSET -0.017188 0.000000 0.000000 
											}
										}
									}
								}
								JOINT RightHandPinky1
								{
									OFFSET -0.077902 -0.000930 -0.030891 
									CHANNELS 3 Zrotation Xrotation Yrotation
									JOINT RightHandPinky2
									{
										OFFSET -0.028538 0.000000 0.000000 
										CHANNELS 3 Zrotation Xrotation Yrotation
										JOINT RightHandPinky3
										{
											OFFSET -0.021734 0.000000 0.000000 
											CHANNELS 3 Zrotation Xrotation Yrotation
											End Site
											{
												OFFSET -0.022656 0.000000 0.000000 
											}
										}
									}
								}
							}
						}
					}
				}
			}
		}
	}
	JOINT LeftUpLeg
	{
		OFFSET 0.075264 -0.025573 0.000000 
		CHANNELS 3 Xrotation Yrotation Zrotation
		JOINT LeftLeg
		{
			OFFSET 0.000000 -0.326016 -0.013516 
			CHANNELS 3 Xrotation Yrotation Zrotation
			JOINT LeftFoot
			{
				OFFSET 0.000098 -0.306172 -0.006623 
				CHANNELS 3 Xrotation Yrotation Zrotation
				JOINT LeftToeBase
				{
					OFFSET -0.001432 -0.095259 0.064705 
					CHANNELS 3 Xrotation Yrotation Zrotation
					End Site
					{
						OFFSET 0.000000 0.000000 0.079438 
					}
				}
			}
		}
	}
	JOINT RightUpLeg
	{
		OFFSET -0.075264 -0.025573 0.000000 
		CHANNELS 3 Xrotation Yrotation Zrotation
		JOINT RightLeg
		{
			OFFSET 0.000000 -0.326016 -0.013516 
			CHANNELS 3 Xrotation Yrotation Zrotation
			JOINT RightFoot
			{
				OFFSET 0.000098 -0.306172 -0.006623 
				CHANNELS 3 Xrotation Yrotation Zrotation
				JOINT RightToeBase
				{
					OFFSET -0.001432 -0.095259 0.064705 
					CHANNELS 3 Xrotation Yrotation Zrotation
					End Site
					{
						OFFSET 0.000025 0.000000 0.079438 
					}
				}
			}
		}
	}
}
MOTION
Frames: 6
Frame Time: 0.033333
-0.000005 0.743106 -0.000021 -3.705200 3.808400 -0.391600 0.169900 0.315200 -0.024500 0.511400 0.555600 -0.150000 0.508100 0.557000 -0.156000 -12.568400 -1.447500 2.637400 -0.000000 0.000000 -0.000000 10.197500 3.163000 -2.584800 -9.380900 3.461100 -10.970300 -64.615799 15.986900 -2.869400 0.000000 -0.000000 -12.875000 -11.523200 1.119200 7.840900 14.485400 4.652100 1.954500 -2.083900 9.829400 15.908800 7.354600 0.369400 -4.664200 -22.609400 0.001500 4.265700 -42.002800 0.003900 -0.010000 -23.350201 0.001200 -0.006000 -20.614000 0.001300 -0.248100 -31.978500 0.002300 -0.008000 -19.678400 0.000900 -0.005100 -32.021900 0.002700 3.403600 -35.772099 0.002800 -0.008800 -24.727301 0.001400 -0.006300 -42.656399 -3.219500 5.595200 -27.849199 0.001700 -0.007000 -10.096800 0.000200 -0.002600 10.486900 4.810300 14.223100 66.118202 1.293400 5.502900 0.000000 0.000000 7.533700 9.836800 -4.339700 15.298600 2.766400 -7.741600 -18.964001 -5.163700 7.246600 -7.082600 -24.566500 3.285000 -0.935700 16.491199 0.121200 0.520200 29.193300 0.001000 0.003900 15.659900 0.000300 0.002100 18.699200 0.000500 2.953500 36.782700 0.001600 0.004700 28.388599 0.001000 0.003800 36.036598 0.001700 3.222700 22.687401 0.000600 0.003000 21.193100 0.000500 0.002900 36.793201 0.001800 5.317400 29.769199 0.001000 0.003900 13.602900 0.000200 0.001900 -10.500200 12.243800 10.165000 11.134600 4.894900 2.018600 -3.771000 0.713300 -10.538900 0.054600 0.001100 -0.140700 -10.803300 -8.441900 -8.533700 8.491000 1.383000 -2.908500 -1.558100 -0.497300 10.501200 0.085700 -0.003000 0.201600 
-0.000024 0.743111 0.000109 -3.705700 3.796200 -0.396600 0.128000 0.318300 -0.026500 0.512600 0.560200 -0.156200 0.509300 0.561500 -0.162300 -12.555900 -1.464400 2.683000 -0.000000 0.000000 -0.000000 10.353600 3.182400 -2.638400 -9.350800 3.455200 -10.975000 -64.714600 15.961400 -2.697400 -0.000000 -0.000000 -12.861600 -11.491100 1.152500 7.942600 14.485400 4.652000 1.954500 -2.074800 9.824700 15.894000 7.492300 0.320600 -4.800900 -22.553101 0.001500 4.233200 -41.973202 0.003900 -0.010100 -23.334299 0.001200 -0.006000 -20.608999 0.001300 -0.285900 -31.984800 0.002300 -0.008000 -19.681700 0.000900 -0.005100 -31.997801 0.002700 3.429000 -35.771198 0.002800 -0.008800 -24.729099 0.001400 -0.006300 -42.750702 -3.230600 5.614500 -28.041401 0.001800 -0.007100 -10.096900 0.000200 -0.002600 10.478200 4.808700 14.261700 66.095398 1.247300 5.389400 0.000000 0.000000 7.500700 9.966400 -4.395900 15.371800 2.766400 -7.741600 -18.964001 -5.196700 7.245100 -6.993200 -24.704800 3.301400 -0.831400 16.422701 0.124400 0.534600 28.679199 0.001000 0.003800 15.655300 0.000300 0.002100 18.702999 0.000500 3.029000 36.885399 0.001600 0.004700 28.367800 0.000900 0.003800 36.092201 0.001700 3.256500 22.684799 0.000600 0.003000 21.191500 0.000500 0.002900 36.819901 0.001800 5.353700 29.716999 0.001000 0.003900 13.688600 0.000200 0.001900 -10.489700 12.253500 10.173500 11.157300 4.883000 2.015600 -3.794700 0.714000 -10.519500 0.062200 0.001300 -0.160200 -10.785000 -8.440700 -8.525800 8.506800 1.374200 -2.909500 -1.578200 -0.497800 10.478400 0.095000 -0.003300 0.223400 
-0.000019 0.743123 0.000159 -3.701300 3.775800 -0.392500 0.023100 0.321700 -0.019600 0.540300 0.565000 -0.163900 0.537000 0.566300 -0.170000 -12.510600 -1.477900 2.718700 -0.000000 0.000000 -0.000000 10.495200 3.193200 -2.655700 -9.382100 3.453500 -10.996600 -64.753601 15.910200 -2.556900 0.000000 -0.000000 -12.807500 -11.505400 1.185400 8.039200 14.485400 4.652000 1.954500 -2.192000 9.885300 16.083300 7.763900 0.242300 -5.020200 -22.594700 0.001500 4.239000 -42.000599 0.003900 -0.010100 -23.335600 0.001200 -0.006000 -20.683901 0.001300 -0.282000 -32.064201 0.002300 -0.008000 -19.681700 0.000900 -0.005100 -32.081799 0.002700 3.410000 -35.739201 0.002800 -0.008800 -24.750000 0.001400 -0.006300 -42.799801 -3.226300 5.607000 -28.032101 0.001800 -0.007000 -10.096900 0.000200 -0.002600 10.530000 4.813900 14.319400 66.014900 1.257600 5.240300 -0.000000 -0.000000 7.470700 9.805900 -4.380000 15.155600 2.766400 -7.741600 -18.964001 -5.154200 7.247000 -7.108300 -24.706699 3.302000 -0.827600 16.530399 0.118600 0.508700 28.703899 0.001000 0.003800 15.650800 0.000300 0.002100 18.709400 0.000500 2.969300 36.838100 0.001600 0.004700 28.369699 0.001000 0.003800 36.035301 0.001700 3.223400 22.639099 0.000600 0.003000 21.164700 0.000500 0.002800 36.835300 -0.032200 5.221300 29.716000 0.001000 0.003900 13.684500 0.000200 0.001900 -10.475600 12.243300 10.157600 11.182900 4.900400 2.029800 -3.811900 0.713000 -10.484300 0.077800 0.001600 -0.200300 -10.769800 -8.446600 -8.530700 8.526900 1.376000 -2.910000 -1.594100 -0.498100 10.458500 0.103100 -0.003700 0.242600 
-0.000023 0.743125 0.000130 -3.699100 3.758500 -0.387100 -0.142300 0.327100 -0.004900 0.584900 0.573200 -0.164600 0.581700 0.574500 -0.170700 -12.445200 -1.481000 2.735300 -0.000000 0.000000 -0.000000 10.662800 3.205900 -2.657300 -9.502700 3.459500 -11.030600 -64.705498 15.845700 -2.432400 0.000000 0.000000 -12.738500 -11.579700 1.188000 8.105800 14.485400 4.652100 1.954500 -2.362300 9.973200 16.357901 7.797400 0.253100 -4.989800 -22.483500 0.001500 4.201500 -42.002201 0.003900 -0.010100 -23.320299 0.001200 -0.006000 -20.635000 0.001300 -0.274500 -31.982201 0.002300 -0.008000 -19.681700 0.000900 -0.005100 -32.006401 0.002700 3.404500 -35.694901 0.002800 -0.008800 -24.704700 0.001400 -0.006300 -42.716000 -3.212300 5.582700 -28.033300 0.001800 -0.007100 -10.097000 0.000200 -0.002600 10.636400 4.824400 14.368600 65.871300 1.325200 5.076100 -0.000000 0.000000 7.428800 9.415900 -4.282700 14.738500 2.766400 -7.741600 -18.964001 -5.232300 7.243500 -6.896600 -24.674601 3.297400 -0.856600 16.517900 0.117200 0.502600 28.712299 0.001000 0.003800 15.647400 0.000300 0.002100 18.681601 0.000500 2.968900 36.786301 0.001600 0.004700 28.352301 0.001000 0.003800 36.044102 0.001700 3.239000 22.686800 0.000600 0.003100 21.192699 0.000500 0.002800 36.797001 0.001100 5.316500 29.723801 0.001000 0.003900 13.684100 0.000200 0.001900 -10.470200 12.232500 10.143500 11.206500 4.917400 2.043500 -3.820900 0.712300 -10.462400 0.088300 0.001700 -0.227600 -10.768100 -8.447300 -8.535600 8.553000 1.381400 -2.913300 -1.606000 -0.499100 10.456500 0.103900 -0.003700 0.244400 
-0.000052 0.743124 0.000028 -3.692700 3.748000 -0.380500 -0.362900 0.337000 0.016200 0.640900 0.588600 -0.161600 0.637600 0.590000 -0.167600 -12.377500 -1.479600 2.734200 -0.000000 0.000000 -0.000000 10.853600 3.198300 -2.658700 -9.715200 3.472700 -11.061900 -64.557602 15.792100 -2.304600 -0.000000 -0.000000 -12.715300 -11.602500 1.177700 8.154400 14.485400 4.652100 1.954500 -2.750000 10.002300 16.979601 7.929600 0.323800 -4.917900 -22.628099 0.001500 4.220900 -42.001801 0.003900 -0.010100 -23.334499 0.001200 -0.006000 -20.695601 0.001300 -0.283400 -32.062099 0.002300 -0.008000 -19.681700 0.000900 -0.005100 -32.054401 0.002700 3.403800 -35.698200 0.002800 -0.008800 -24.726999 0.001400 -0.006300 -42.828201 -3.220000 5.596100 -28.031000 0.001800 -0.007100 -10.097100 0.000200 -0.002600 10.823900 4.843300 14.378900 65.640602 1.327100 4.944200 0.000000 0.000000 7.409800 9.259800 -4.219900 14.608600 2.766400 -7.741600 -18.964001 -5.216400 7.244200 -6.939800 -24.693600 3.299800 -0.841100 16.409500 0.121700 0.522800 28.707600 0.001000 0.003800 15.645900 0.000300 0.002100 18.706600 0.000500 2.997400 36.832802 0.001600 0.004700 28.388500 0.001000 0.003800 36.053501 0.001700 3.250700 22.641100 0.000600 0.003000 21.165400 0.000500 0.002900 36.793301 0.000200 5.314600 29.767300 0.001000 0.003900 13.684100 0.000200 0.001900 -10.475900 12.230400 10.137900 11.219900 4.917100 2.044500 -3.817500 0.710800 -10.444900 0.094400 0.001800 -0.243100 -10.782000 -8.444100 -8.539500 8.586500 1.379800 -2.918400 -1.615800 -0.500200 10.458600 0.102300 -0.003600 0.240900 
-0.000091 0.743141 -0.000119 -3.683400 3.766600 -0.371000 -0.633400 0.347000 0.044100 0.703700 0.604400 -0.158000 0.700400 0.605800 -0.164000 -12.291900 -1.466500 2.712700 -0.000000 0.000000 -0.000000 10.908100 3.203600 -2.658600 -9.982600 3.484800 -11.054600 -64.347198 15.731000 -2.212500 0.000000 -0.000000 -12.711000 -11.606700 1.195200 8.179000 14.485400 4.652000 1.954500 -2.841300 10.002300 17.125401 8.099400 0.288300 -5.031400 -22.591299 0.001500 4.163500 -42.001999 0.003900 -0.010100 -23.336300 0.001200 -0.006000 -20.726801 0.001300 -0.274500 -31.990400 0.002300 -0.008000 -19.681700 0.000900 -0.005100 -32.066200 0.002700 3.387800 -35.729801 0.002800 -0.008800 -24.727800 0.001400 -0.006300 -42.826401 -3.207800 5.574700 -27.857100 0.001700 -0.007000 -10.095700 0.000200 -0.002700 11.089700 4.871700 14.390400 65.327400 1.277300 4.842600 -0.000000 -0.000000 7.412000 9.260500 -4.215600 14.619600 2.766400 -7.741600 -18.964001 -5.276000 7.241500 -6.777900 -24.811800 3.310500 -0.755200 16.389700 0.119600 0.513400 28.290100 0.000900 0.003700 15.647400 0.000300 0.002100 18.639099 0.000500 2.986800 36.792000 0.001600 0.004700 28.353100 0.001000 0.003800 36.017799 0.001700 3.249700 22.589100 0.000600 0.003100 21.164600 0.000500 0.002800 36.747501 -0.005400 5.299600 29.768200 0.001000 0.003900 13.684200 0.000200 0.001900 -10.502000 12.222500 10.126700 11.207300 4.920600 2.041500 -3.795600 0.706800 -10.412900 0.104000 0.002000 -0.267800 -10.821700 -8.443800 -8.546700 8.603500 1.372900 -2.918400 -1.612100 -0.499300 10.447800 0.104800 -0.003600 0.246300 
